<?xml version="1.0" encoding="utf-8"?>
<!-- Generator: Adobe Illustrator 17.1.0, SVG Export Plug-In . SVG Version: 6.00 Build 0)  -->
<!DOCTYPE svg PUBLIC "-//W3C//DTD SVG 1.1//EN" "http://www.w3.org/Graphics/SVG/1.1/DTD/svg11.dtd">
<svg version="1.1" xmlns="http://www.w3.org/2000/svg" xmlns:xlink="http://www.w3.org/1999/xlink" x="0px" y="0px"
	 viewBox="0 0 636 130" enable-background="new 0 0 636 130" xml:space="preserve">
<g id="Layer_1">
	<g display="inline">
		<g>
			
				<rect x="44.9" y="45.1" transform="matrix(0.7071 0.7071 -0.7071 0.7071 64.6453 -26.6693)" fill="#1D252D" width="39.2" height="39.2"/>
			<g>
				
					<rect x="10.9" y="11.1" transform="matrix(0.7071 0.7071 -0.7071 0.7071 30.593 -12.5643)" fill="#1D252D" width="39.2" height="39.2"/>
				
					<rect x="10.9" y="79.2" transform="matrix(0.7071 0.7071 -0.7071 0.7071 78.7503 7.3831)" fill="#1D252D" width="39.2" height="39.2"/>
			</g>
		</g>
		<path fill="#1D252D" d="M106.5,36.4V22.6h62.8v13.8h-24.5v62.8h-13.8V36.4H106.5z"/>
		<path fill="#1D252D" d="M166.5,73.2V41.9h13.8V75c0,4.6,0.9,7.9,2.8,9.9c1.9,2,4.9,3,9.2,3c4.3,0,7.4-1,9.3-3
			c1.9-2,2.8-5.3,2.8-9.9V41.9h13.8v31.3c0,8.4-2.3,15-6.8,19.7c-4.6,4.7-10.9,7.1-19,7.1c-8.1,0-14.4-2.4-19-7.1
			C168.7,88.2,166.5,81.6,166.5,73.2z"/>
		<path fill="#1D252D" d="M224.8,99.2V47c0.9-0.4,2.2-1,3.9-1.6c1.6-0.6,4.9-1.5,9.9-2.6c5-1.1,9.9-1.7,14.8-1.8v11.8
			c-5.8,0.1-10.7,0.7-14.8,1.9v44.4H224.8z"/>
		<path fill="#1D252D" d="M259.9,80.8V19.9h13.8v22c3.3-0.6,6.4-0.9,9.4-0.9c8.5,0,15.1,2.5,19.6,7.4c4.6,5,6.9,12.1,6.9,21.4
			c0,5.1-0.7,9.6-2,13.6c-1.3,3.9-2.9,6.9-4.7,8.9c-1.8,2-4,3.7-6.6,4.9c-2.5,1.3-4.8,2.1-6.6,2.4c-1.9,0.3-3.8,0.4-5.7,0.4
			c-8.2,0-14.2-1.9-18.2-5.7C261.9,90.6,259.9,86.1,259.9,80.8z M273.7,82.1c0,4.1,3.4,6.2,10.3,6.2c4.4,0,7.4-1.5,9.2-4.5
			c1.8-3,2.6-7.9,2.6-14.6c0-6.4-1.1-11-3.4-13.5s-5.5-3.9-9.8-3.9c-3.4,0-6.3,0.3-8.9,1V82.1z"/>
		<path fill="#1D252D" d="M321.9,92.4c-4.7-5.1-7-12.4-7-21.9s2.3-16.8,7-21.9c4.7-5.1,11.4-7.6,20.1-7.6c8.7,0,15.4,2.5,20.1,7.6
			c4.7,5.1,7,12.4,7,21.9s-2.3,16.8-7,21.9c-4.7,5.1-11.4,7.6-20.1,7.6C333.2,100.1,326.5,97.5,321.9,92.4z M331.9,56.2
			c-2.2,2.5-3.3,7.3-3.3,14.4c0,7.1,1.1,11.9,3.3,14.4c2.2,2.5,5.5,3.7,10.1,3.7s7.9-1.2,10-3.7c2.2-2.5,3.3-7.3,3.3-14.4
			c0-7.1-1.1-11.9-3.3-14.4c-2.2-2.5-5.5-3.8-10-3.8S334.1,53.7,331.9,56.2z"/>
		<path fill="#1D252D" d="M375.1,99.2V22.6h27.6c3.5,0,6.8,0.4,9.8,1.1c3,0.7,5.8,1.9,8.4,3.4c2.6,1.6,4.6,3.8,6.1,6.7
			c1.5,2.9,2.2,6.3,2.2,10.3c0,6.8-3,11.7-9.1,14.9c8.9,3.2,13.3,9.1,13.3,17.7c0,2.1-0.2,4-0.5,5.8c-0.4,1.8-1.1,3.8-2.4,5.9
			c-1.2,2.2-2.8,4-4.8,5.5c-2,1.5-4.7,2.8-8.2,3.8c-3.5,1-7.5,1.5-12.2,1.5H375.1z M388.9,53.8h14.6c8,0,11.9-3.1,11.9-9.2
			c0-6.8-4.3-10.1-12.9-10.1h-13.6V53.8z M388.9,87h15.9c9.9,0,14.9-3.7,14.9-11.1c0-6.6-5.1-9.9-15.4-9.9h-15.4V87z"/>
		<path fill="#1D252D" d="M488.1,41.9l-28.7,81.7h-13.8l9-26.7l0-0.1c0.1-0.2,0.2-0.5,0.2-0.7l-20.6-54.2h14.6l12.8,39.9l12.6-39.9
			H488.1z"/>
		<path fill="#1D252D" d="M492,53.7V41.9h9.6v-17h13.8v17H529v11.8h-13.6V82c0,2.5,0.5,4.1,1.5,5c1,0.9,2.9,1.3,5.5,1.3
			c2.5,0,4.7-0.4,6.6-1.2v11.4c-2.7,1.1-5.6,1.7-8.8,1.7c-0.1,0-0.2,0-0.3,0c-5.7,0-10.1-1.7-13.4-5c-3.3-3.4-4.9-8-4.9-13.9V53.7
			H492z"/>
		<path fill="#1D252D" d="M533.7,71.1c0-9.2,2-16.5,6.1-22c4.1-5.5,10.6-8.2,19.5-8.2c8.4,0,14.8,2.7,19.1,8s6.5,11.9,6.5,19.7
			c0,3.2-0.1,5.6-0.2,7.1h-37.2c0.4,5,1.9,8.3,4.5,10c2.6,1.7,6,2.5,10.1,2.5c6.7,0,13.2-1.5,19.5-4.4v11.1
			c-6.4,3.4-13.5,5.2-21.6,5.2c-2.5,0-4.9-0.2-7.2-0.6c-2.2-0.4-4.6-1.3-7-2.6c-2.4-1.3-4.5-3-6.2-5c-1.7-2-3.2-4.8-4.3-8.4
			S533.7,75.8,533.7,71.1z M547.4,66.2h23.1c-0.4-3.9-1.5-7.2-3.5-10c-2-2.7-4.7-4.1-8.1-4.1c-3.4,0-6.1,1.1-8,3.3
			C549,57.7,547.8,61.3,547.4,66.2z"/>
		<path fill="#1D252D" d="M589.7,58.9c0-5.8,2-10.2,6.1-13.3c4.1-3.1,9.1-4.6,15.2-4.6c5.7,0,10.9,1.4,15.6,4.1v10.5
			c-3.9-1.8-8.3-2.8-13.2-2.8c-6.6,0-9.9,1.6-9.9,4.8c0,1.6,0.9,2.9,2.8,3.8c1.9,0.9,4.1,1.7,6.8,2.4c2.7,0.7,5.4,1.6,8,2.8
			c2.7,1.2,4.9,3.2,6.8,6c1.9,2.8,2.8,6.4,2.8,10.7c0,4.8-2,8.8-5.9,11.9c-3.9,3.2-9.1,4.7-15.5,4.7c-6.6,0-12.6-1.6-18.2-4.7V83.2
			c5,3.4,10.4,5.1,16.2,5.1c4,0,6.5-0.5,7.7-1.4c1.2-0.9,1.8-2.3,1.8-4.1c0-1.7-0.9-3-2.8-4.1s-4.2-1.9-6.8-2.7s-5.3-1.7-8-2.7
			c-2.7-1-4.9-2.8-6.8-5.2C590.7,65.6,589.7,62.6,589.7,58.9z"/>
		<g>
			<g>
				
					<rect x="44.9" y="45.1" transform="matrix(0.7071 0.7071 -0.7071 0.7071 64.6453 -26.6693)" fill="#1D252D" width="39.2" height="39.2"/>
			</g>
			<g>
				<g>
					
						<rect x="10.9" y="11.1" transform="matrix(0.7071 0.7071 -0.7071 0.7071 30.593 -12.5643)" fill="#1D252D" width="39.2" height="39.2"/>
				</g>
				<g>
					
						<rect x="10.9" y="79.2" transform="matrix(0.7071 0.7071 -0.7071 0.7071 78.7503 7.3831)" fill="#1D252D" width="39.2" height="39.2"/>
				</g>
			</g>
		</g>
	</g>
</g>
</svg>
